# xmcd
#
# Track frame offsets:
# 150
# 17672
# 30814
# 49324
# 64090
# 83737
# 97029
# 113773
# 131238
# 147737
# 162957
# 181471
# 195368
# 208645
# 221191
# 236328
# 249475
# 265657
# 281082
# 298339
#
# Disc length: 4179 seconds
#
#
# Revision: 4
# Processed by: cddbd v1.5.1PL2 Copyright (c) Steve Scherf et al.
# Submitted via: FreeRIP 2.944 
#
DISCID=2f105114
DTITLE=Promo Only Country Radio October 2005 - Promo Only Country Radio October 2005
DYEAR=2005
DGENRE=Country
TTITLE0=Shania Twain - Shoes
TTITLE1=Toby Keith - Big Blue Note
TTITLE2=Sugarland - Just Might (Make Me Believe)
TTITLE3=George Strait - She Let Herself Go
TTITLE4=Faith Hill - Like We Never Loved At All
TTITLE5=Trick Pony - Ain't Wastin' Good Whiskey On You
TTITLE6=Clint Black - Code Of The West
TTITLE7=Reba Mcentire - You're Gonna Be (Always Loved By Me)
TTITLE8=Dwight Yoakam - Blame The Vain
TTITLE9=Van Zant - Nobody Gonna Tell Me What To Do
TTITLE10=George Jones F. Dolly Parton - The Blues Man
TTITLE11=Miranda Lambert - Kerosene
TTITLE12=Jamey Johnson - The Dollar
TTITLE13=Amber Dotson - I Ain't Your Mama
TTITLE14=Patty Loveless - Keep Your Distance
TTITLE15=Darryl Lee Rush - White Trash Paradise @
TTITLE16=Jenaí - Hallelujah @
TTITLE17=Susan Gibson - Happiest When I'm Moving
TTITLE18=Chris Campbell - Ordinary Guy
TTITLE19=Annie Sims - Dear Heartache
EXTD=
EXTT0=
EXTT1=
EXTT2=
EXTT3=
EXTT4=
EXTT5=
EXTT6=
EXTT7=
EXTT8=
EXTT9=
EXTT10=
EXTT11=
EXTT12=
EXTT13=
EXTT14=
EXTT15=
EXTT16=
EXTT17=
EXTT18=
EXTT19=
PLAYORDER=
